<?xml version="1.0"?><svg version="1.2" baseProfile="tiny-ps" viewBox="0 0 252 252" xmlns="http://www.w3.org/2000/svg" xmlns:xlink="http://www.w3.org/1999/xlink"><title>ASTERIAFORGE</title><g><g fill="#8bedd3" transform="matrix(.1 0 0 -.1 0 252)"><path d="M1202 2354c-28-88-92-289-142-449-50-159-92-297-93-305l-1-15 53-72c29-40 54-73 56-73 9 0 26 43 59 155 74 252 106 361 112 375l6 15 49-164 50-163-70-209-69-209h8c4 0 46 51 91 112 46 62 116 155 156 206l72 92-4 13c-2 6-34 107-70 222-107 338-197 609-205 619l-8 8-50-158zM1 1568v-23l371-264 370-264 89 28 89 29v10c0 6-102 80-225 165-124 85-225 156-225 158s74 3 163 3h164l178-131c97-71 180-128 183-125s-7 23-22 43c-15 21-64 91-109 156s-101 145-125 178l-42 59H0l1-22zm1977 5-397-3-56-74c-30-40-55-79-55-85v-11l283 6 282 7-6-7c-3-3-64-46-134-96l-129-90h-435l-6-10c-3-5-5-10-2-10 2 0 108-36 236-80s238-80 245-80 121 77 252 171c132 95 290 208 352 252l112 80v37l-72-2c-40-2-252-4-470-5zm-662-524c-3-34-6-153-6-264V582l362-267 362-267 4 11c5 14-288 893-302 907-13 14-175 68-182 61-3-2 38-125 90-273s94-269 93-270-63 45-139 102l-136 104-42 132c-60 193-91 288-94 288-2 0-6-28-10-61zm-256-19c-69-22-168-52-220-66-52-15-100-32-107-38-14-13-297-855-290-862 4-4 724 523 770 563l17 16v176l-10 6-9 6-222-171c-122-94-223-170-224-168-2 2 21 73 49 158l53 155 176 125c97 69 176 128 177 133 0 13-34 6-160-33z"/></g><g fill="#10deeb" transform="matrix(.1 0 0 -.1 0 252)"><path d="M1202 2354c-28-88-92-289-142-449-50-159-92-297-93-305l-1-15 53-72c29-40 54-73 56-73 9 0 26 43 59 155 74 252 106 361 112 375l6 15 49-164 50-163-70-209-69-209h8c4 0 46 51 91 112 46 62 116 155 156 206l72 92-4 13c-2 6-34 107-70 222-107 338-197 609-205 619l-8 8-50-158zm-32-580c0-4-20-76-45-161-25-84-45-157-45-161 0-12-49 52-50 66 0 19 71 235 82 250l10 12h24c13 0 24-3 24-6zm334-60 19-61-33-47c-18-25-34-45-35-43-6 6-55 188-55 202v16l42-3 42-3 20-61zM1 1568v-23l371-264 370-264 77 26 76 27-32-6-32-5-100 73c-55 40-103 79-105 85-3 7-2 22 2 34l8 21 135-92 134-91-2-10c-2-5 2-9 7-9 6 0 10 6 10 13l-1 12-224 154c-124 85-225 156-225 158s74 3 163 3h164l178-131c97-71 180-128 183-125s-7 23-22 43c-15 21-64 91-109 156s-101 145-125 178l-42 59H0l1-22zm882-30c13-18 27-39 31-45l7-13H735l-14 9-13 9 12 36 12 36h127l24-32zm1095 35-397-3-56-74c-30-40-55-79-55-85v-11l98 2 97 2-92 5-92 6 20 33 21 32h267l11-20 11-20-6-10-6-10-57-2c-31-1 21-5 116-8l173-5-133-92-133-93h-434l-6-10c-3-5-5-10-2-10 2 0 108-36 236-80s238-80 245-80 121 77 252 171c132 95 290 208 352 252l112 80v37l-72-2c-40-2-252-4-470-5zm-84-397c3-13 8-31 12-39l5-14-51-38-52-38-54 17-55 17 42 31c57 41 131 88 140 88 4 0 10-11 13-24zm-578-127c-3-34-6-153-6-264V582l362-267 362-267 4 11c5 14-288 893-302 907-10 10-160 64-179 64-15 0-6-16 11-17 9-1 29-6 43-12l27-10 42-125 41-125-6-11c-3-5-15-14-25-20l-18-10-17 51c-9 28-19 48-21 46s20-73 50-158c30-84 54-154 53-155s-63 45-139 102l-136 104-42 132c-60 193-91 288-94 288-2 0-6-28-10-61zm103-424 73-58-28-23c-16-13-32-23-37-24-4 0-30 15-57 33l-50 32v117l13-9c6-5 45-36 86-68zm-359 405c-69-22-168-52-220-66-52-15-100-32-107-38-14-13-297-855-290-862 4-4 724 523 770 563l17 16v176l-10 6-9 6-222-171c-122-94-223-170-224-168-2 2 21 73 49 158l53 155 176 125c97 69 176 128 177 133 0 13-34 6-160-33zM804 844c-20-54-37-100-38-101s-18 9-38 22l-36 25 21 64 20 64 51 14c28 8 52 14 54 13 1-1-14-46-34-101zm406-76v-43l-53-37c-28-20-76-53-105-74l-52-37-26 12-26 11 13 16c12 15 239 194 246 194 2 0 3-19 3-42zm376 152c4-14 13-38 20-55l14-30-6 25c-4 14-13 39-20 55l-14 30 6-25z"/></g><g fill="#56b2b0" transform="matrix(.1 0 0 -.1 0 252)"><path d="M1227 2433c-58-177-127-401-126-409 0-5 20 47 44 115 25 68 47 126 50 130 4 3 5-43 3-102l-3-107h22c12 0 25-5 28-10l7-11-72-242c-39-133-79-266-89-296l-17-54-49 74-50 73 2 20 3 21-9-20c-5-11-6-24-3-30 12-21 104-145 107-145 9 0 26 43 59 155 74 252 106 361 112 375l6 15 49-164 50-163-70-209-69-209h8c4 0 46 51 91 112 46 62 116 155 156 206l72 92-4 13c-2 6-34 107-70 222-105 334-197 609-205 618l-8 9-25-79zm177-405c8-18 37-110 66-205l53-171-34-47-33-47-8 24c-53 174-129 429-134 451l-6 27h83l13-32zm-343-119c-18-55-31-102-29-104 2-3 19 41 37 96s31 102 29 104c-2 3-19-41-37-96zm-60-190c-12-39-21-72-19-75 2-2 14 28 27 67 12 39 21 72 19 75-2 2-14-28-27-67zM1 1568v-23l370-264 371-264 74 23c41 13 72 25 70 28-3 2-35-6-73-19l-69-22-130 93c-207 149-454 334-450 337 2 2 49-12 104-32 116-40 112-39 112-21 0 8 4 18 10 21l10 6 21-11c54-30 484-333 482-341-2-5 2-9 7-9 6 0 10 6 10 13l-1 12-224 154c-124 85-225 156-225 158s74 3 163 3h164l178-131c97-71 180-128 183-125s-7 23-22 43c-15 21-64 91-109 156s-101 145-125 178l-42 59H0l1-22zm882-30c13-18 28-39 32-47l8-14-248 6-248 6-8 8-9 9 11 32 11 32h427l24-32zm1095 35-397-3-56-74c-30-40-55-79-55-85v-11l98 2 97 2-94 5-94 6 50 65 50 65 214 7c118 5 288 7 379 5l165-2-117-35-118-34v-56l-12-1c-7-1-20-3-28-4s-96-4-195-6l-180-3 173-6 173-5-133-92-133-93h-434l-6-10c-3-5-5-10-2-10 2 0 108-36 236-80s238-80 245-80 121 77 252 171c132 95 290 208 352 252l112 80v37l-72-2c-40-2-252-4-470-5zm162-238 12-35-24-20c-12-11-90-68-172-126l-148-107-55 17-54 17 38 28c115 83 377 261 383 261 5 0 14-16 20-35zm-824-286c-3-34-6-153-6-264V582l362-267 362-267 4 11c5 14-288 893-302 907-10 10-160 64-179 64-4 0-7-4-7-8 0-5 6-9 13-9s48-12 89-27l76-28 55-161c76-220 177-531 174-534-4-3-87 113-112 155l-20 32-15-6c-8-3-21-8-28-11l-12-5-11 31c-6 17-14 29-19 28-4-1-68 44-143 100l-135 102-42 133c-60 193-91 288-94 288-2 0-6-28-10-61zm222-512c100-76 183-141 186-145 2-4-11-17-29-29l-33-22-69 47c-37 26-108 78-158 116-49 37-95 70-102 73l-13 5v119l18-13c10-7 100-75 200-151zm-478 493c-69-22-168-52-220-66-52-15-100-32-106-38-13-12-56-137-50-144 2-2 14 28 27 66l22 70 54 15 54 15-6-17c-4-9-31-86-60-171s-65-187-80-227l-27-72-33 22-34 22 6 25c3 14 20 72 39 130 18 57 32 106 30 108s-56-155-121-348C491 226 441 66 443 64c4-4 726 525 770 563l17 16v176l-10 6-9 6-222-171c-122-94-223-170-224-168-2 2 21 73 49 158l53 155 176 125c97 69 176 128 177 133 0 13-34 6-160-33zm150-307-1-88-47-35C968 457 772 315 700 265l-85-60 24 35c14 19 46 62 72 96l48 60-19 12-19 12 5 13c2 7 55 51 115 98 61 46 168 128 237 182 69 53 127 97 129 97 1 0 3-39 3-87zm376 197c4-14 13-38 20-55l14-30-6 25c-4 14-13 39-20 55l-14 30 6-25zm46-132c3-7 13-37 23-66 9-29 19-52 21-49 5 5-36 127-43 127-3 0-3-6-1-12zm74-208c4-14 13-38 20-55l14-30-6 25c-4 14-13 39-20 55l-14 30 6-25z"/></g><g fill="#01a3c7" transform="matrix(.1 0 0 -.1 0 252)"><path d="M1227 2433c-58-177-127-401-126-409 0-5 20 47 44 115 25 68 47 126 50 130 4 3 5-43 3-102l-3-107h22c12 0 25-4 28-10l6-10-46-161c-26-88-44-163-42-166 4-4 25 58 62 192 10 33 20 64 23 69l5 9 49-163 49-162-70-209-69-209h8c4 0 46 51 91 112 46 62 116 155 156 206l72 92-4 13c-2 6-34 107-70 222-105 334-197 609-205 618l-8 9-25-79zm234-578 66-200-8-15c-4-8-21-31-37-50l-30-35-20 70c-11 39-43 148-71 244-28 95-51 178-51 183v9l43-3 42-3 66-200zm-400 54c-18-55-31-102-29-104 2-3 19 41 37 96s31 102 29 104c-2 3-19-41-37-96zm-60-190c-12-39-21-72-19-75 2-2 14 28 27 67 12 39 21 72 19 75-2 2-14-28-27-67zm140-60c-7-24-24-81-37-127l-25-84-17 14-17 13 14-18 14-18 9 9c12 12 80 232 75 245-2 6-9-10-16-34zm-174-48-5-19 34-48c18-26 37-50 40-53 11-10-18 42-41 74l-22 30 4 18c6 23-3 22-10-2zM1 1568v-23l370-264 370-263 45 12c24 7 43 15 40 17-2 2-22-1-43-7l-40-12-129 92c-207 149-454 334-450 337 2 2 49-12 104-32 116-40 112-39 112-21 0 8 4 18 10 21l10 6 20-11c48-26 467-314 483-332l17-20v13l-1 14-224 154c-124 85-225 156-225 158s74 3 163 3h164l178-131c97-71 180-128 183-125s-7 23-22 43c-15 21-64 91-109 156s-101 145-125 178l-42 59H0l1-22zm897-45c17-26 30-48 29-49s-114 2-252 7l-249 9-8 8-8 8 11 32 11 32h436l30-47zm1080 50-397-3-56-74c-30-40-55-77-55-81 0-5 13 10 29 31s42 54 57 71l29 33 373 6c204 4 372 5 372 2s-52-21-115-39l-115-33v-56l-12-1c-7-1-20-3-28-4s-64-4-125-5l-110-4 103-5 103-6-133-92-133-93h-434l-5-9-6-9 183-63c100-34 188-65 196-67l14-5-6 11-7 10 200 137c111 75 207 138 214 141l14 5 12-37 12-36-9-7c-55-39-243-184-243-188 0-2 21 11 48 30 133 96 360 259 460 330l112 80v37l-72-2c-40-2-252-4-470-5zm-425-170c20-2 54-2 75 0l37 4h-150l38-4zm-237-354c-3-34-6-127-6-205V700h10c6 0 61-40 123-88s152-119 200-156c49-37 87-69 85-70s-17-12-34-24l-31-21-69 47c-38 26-94 65-124 87-30 21-48 31-40 23 8-9 148-114 310-233l294-217 4 11c5 14-288 893-302 907-10 10-160 64-179 64s-4-15 16-16c13-1 43-11 67-22 25-11 55-23 66-26l21-7 56-162c76-220 177-531 174-534-4-3-87 113-112 155l-20 32-15-6c-8-3-21-8-28-11l-12-5-11 31c-6 17-14 29-19 28-4-1-68 44-143 100l-135 102-42 133c-60 193-91 288-94 288-2 0-6-28-10-61zm539 25-30-26 33 22c17 12 32 23 32 26 0 7-4 5-35-22zm-795-44c-69-22-168-52-220-66-52-15-101-32-108-39l-14-12 57 19c32 10 60 17 62 14 5-5-53-174-139-403l-30-82-34 22-33 22 6 25c3 14 20 72 39 130 18 57 32 106 30 108s-56-155-121-348C491 226 441 66 443 64c4-4 726 525 770 563l17 16v176l-10 6-9 6-222-171c-122-94-223-170-224-168-2 2 21 73 49 158l53 155 176 125c97 69 176 128 177 133 0 13-34 6-160-33zm155-307-7-88-47-35c-106-79-382-280-461-335l-85-60 24 35c14 19 46 62 72 96l48 60-20 12-20 13 9 14c4 8 44 43 88 77 45 35 152 118 239 186 87 67 160 120 162 118 3-2 1-44-2-93zm491-143c4-14 13-38 20-55l14-30-6 25c-4 14-13 39-20 55l-14 30 6-25zm-396 6c0-2 8-10 18-17l17-14-14 18c-13 16-21 21-21 13zm40-30c0-2 14-14 30-26 17-12 30-19 30-16 0 2-13 14-30 26-16 12-30 19-30 16z"/></g><g fill="#0473a1" transform="matrix(.1 0 0 -.1 0 252)"><path d="M1226 2433c-32-97-33-122-1-33l23 65 1-112c1-61 4-118 7-127l6-16h87l66-207c37-115 77-240 90-280l23-72-35-46c-19-26-38-44-41-40-4 3-19 45-34 93l-27 87v-131l-1-131-71-102c-40-56-74-99-77-97-2 3 24 89 58 191l63 186-49 154c-26 85-50 153-52 151s18-72 43-156l46-152-70-209-69-209h8c4 0 46 51 91 112 46 62 116 155 156 206l72 92-4 13c-2 6-34 107-70 222-105 334-197 609-205 618l-8 9-26-79zm-65-204c-7-22-11-43-8-45 2-2 9 14 16 37 7 22 11 43 8 45-2 2-9-14-16-37zm-60-195 1-19 5 13c3 7 2 16-1 19-3 4-6-2-5-13zm101-170c-24-81-41-148-39-151 5-4 25 60 62 192 10 33 22 66 28 73l10 13-9 9-10 10-42-146zm-166-30c-4-14-5-28-3-31 3-2 8 8 11 23 4 14 5 28 3 31-3 2-8-8-11-23zm105-175c-7-24-24-81-37-127l-25-84-17 14-17 13 14-18 14-18 9 9c12 12 80 232 75 245-2 6-9-10-16-34zm-160-5 1-19 5 13c3 7 2 16-1 19-3 4-6-2-5-13zm-11-73c5-11 15-23 21-27l11-6-17 26c-20 30-30 35-15 7zM0 1568l1-23 102-72c56-39 128-90 160-113 31-22 57-39 57-36 0 2-70 55-155 117-86 61-154 113-152 115s43-10 92-26c49-17 102-30 118-30h29l16 42 16 41 290-6 291-7 16-22c9-12 25-35 34-51l17-29-111 4-112 3 138-43 138-44 69-94c37-52 66-98 63-101-5-5-100 64-239 174l-67 53-188-2-188-3 237-162c130-90 239-169 241-175l5-13 1 15v15l-224 154c-124 85-225 156-225 158s74 3 163 3h164l178-131c97-71 180-128 183-125s-7 23-22 43c-15 21-64 91-109 156s-101 145-125 178l-42 59H0v-22zm1978 5-397-3-56-74c-30-40-55-77-55-81s24 24 53 63l52 70 50 6c28 3 237 6 465 6l415-1-110-35c-60-20-116-42-124-50l-15-13 11-35 11-36-32-27c-17-16-71-57-119-91-48-35-87-66-87-69 0-5 29 16 195 137 50 36 134 97 188 134l97 69v37l-72-2c-40-2-252-4-470-5zm-963-57c10-14 19-26 22-26 7 0-17 39-28 46l-11 6 17-26zm928-105 88-6-133-92-133-93h-434l-5-9-6-9 183-63c100-34 188-65 196-67l14-5-7 11-7 11 71 52c39 28 69 53 68 55-2 2-53-13-112-31-60-19-121-35-135-34-14 0-71 15-126 34l-100 33 200 1 200 2 154 109 154 110-109-2-109-2 88-5zm-390-8c20-2 54-2 75 0l37 4h-150l38-4zm-1223-87c0-2 14-14 30-26 17-12 30-19 30-16 0 2-13 14-30 26-16 12-30 19-30 16zm70-50c0-2 14-14 30-26 17-12 30-19 30-16 0 2-13 14-30 26-16 12-30 19-30 16zm70-50c0-2 14-14 30-26 17-12 30-19 30-16 0 2-13 14-30 26-16 12-30 19-30 16zm1525-42-30-26 33 22c17 12 32 23 32 26 0 7-4 5-35-22zm-1455-8c0-2 8-10 18-17l17-14-14 18c-13 16-21 21-21 13zm1385-42-30-26 33 22c17 12 32 23 32 26 0 7-4 5-35-22zm-1345 12c0-2 14-14 30-26 17-12 30-19 30-16 0 2-13 14-30 26-16 12-30 19-30 16zm740-32c0-4 25-86 56-183 30-97 60-191 66-209l10-33 146-110c80-60 148-107 151-103 3 3 0 8-6 12-7 4-73 54-147 110l-134 101-42 133c-66 211-91 288-96 288-2 0-4-3-4-6zm535-30-30-26 33 22c17 12 32 23 32 26 0 7-4 5-35-22zm-1205 12c0-2 14-14 30-26 17-12 30-19 30-16 0 2-13 14-30 26-16 12-30 19-30 16zm410-56c-69-22-168-52-220-66-52-15-102-33-110-41l-15-14 35 14c19 8 49 18 66 21l32 7-29-79c-15-44-25-82-22-86 3-3 39 39 79 94l73 99 118 37c65 21 126 37 136 36l17-1v10c0 15-30 10-160-31zm-32-95L862 820l-61-177c-34-97-60-177-58-179s108 77 237 176c128 99 235 180 237 180 3 0 2-42-2-92l-7-93-27-25c-30-28-8-17 27 14l22 19v176l-10 6-9 6-222-171c-122-94-223-170-224-168-2 2 21 73 49 158l53 155 162 116c88 64 164 119 168 122 21 21-21-5-169-108zm-300 93 10-10 18 4 19 4-28 6-29 6 10-10zm583-160-1-168h11c6 0 38-20 72-43 34-24 68-47 75-52 8-4-21 40-63 98l-76 105-8 113-8 114-2-167zm239 151v-10l9 5 9 6 78-29 78-28 8-14c12-19 288-852 285-856-2-1-32 38-67 88s-72 95-82 100l-19 10-30-22-30-21-72 47c-111 73-60 30 138-115l179-132 4 11c5 14-288 893-302 907-10 10-160 64-179 64-4 0-7-5-7-11zm-240-433c0-2 8-10 18-17l17-14-14 18c-13 16-21 21-21 13zm-275-82c-96-72-158-125-85-73 127 92 201 150 188 149-2 0-48-34-103-76zm-439 40c-4-14-5-28-3-31 3-2 8 8 11 23 4 14 5 28 3 31-3 2-8-8-11-23zm754 12c0-2 14-14 30-26 17-12 30-19 30-16 0 2-13 14-30 26-16 12-30 19-30 16zm70-50c0-2 8-10 18-17l17-14-14 18c-13 16-21 21-21 13zM511 287c-39-118-71-218-71-221 0-4 9-2 20 4l21 11-5 8c-3 5 26 50 64 101l70 93v36l-29 20-29 21 9 39c5 21 13 51 19 66s9 30 6 32c-2 2-36-92-75-210zm949 189c0-2 8-10 18-17l17-14-14 18c-13 16-21 21-21 13zm40-30c0-2 8-10 18-17l17-14-14 18c-13 16-21 21-21 13zm42-32c4-5 28-25 54-44 26-18 45-29 42-24-4 5-28 25-54 44-26 18-45 29-42 24zM693 252C577 166 483 94 485 92c3-4 425 307 425 314s2 8-217-154z"/></g><g fill="#092b47" transform="matrix(.1 0 0 -.1 0 252)"><path d="M1258 2472c2-20 5-43 8-51l5-14 12 12 12 12-10 7c-6 4-11 18-13 32-1 13-6 28-10 32l-8 8 4-38zm83-218c-1-5 10-41 23-80 14-38 25-64 25-58 1 5-10 41-23 80-14 38-25 64-25 58zm70-219c-1-6 12-49 28-95 16-47 30-80 30-75 1 6-12 49-28 95-16 47-30 80-30 75zm-175-61c-9-35-4-39 11-8l11 24-8 5-8 5-6-26zm-35-120c-12-42-20-78-18-80s14 30 26 72 20 78 18 80-14-30-26-72zm270-10c-1-5 10-41 23-80 14-38 25-64 25-58 1 5-10 41-23 80-14 38-25 64-25 58zm-300-91c-1-6-4-20-7-30l-6-18 12 18c6 10 9 23 6 30l-4 12-1-12zm-20-69 1-19 5 13c3 7 2 16-1 19-3 4-6-2-5-13zm369-8c0-8 4-17 9-20l9-6-5 20c-6 23-13 26-13 6zm-389-57c-7-22-11-43-8-45 2-2 9 14 16 37 7 22 11 43 8 45-2 2-9-14-16-37zm378 4-14-18 18 14c16 13 21 21 13 21-2 0-10-8-17-17zm-30-40-14-18 18 14c9 7 17 15 17 17 0 8-8 3-21-13zM0 1581c0-5 12-11 28-14l27-5 3 9 4 9h793l29-32 29-33-25 35-26 35-431 3-431 2v-9zm1976-11-398-5-26-35-25-35 29 33 29 32 385 1c212 1 423 4 470 8l85 8-75-1c-41 0-254-3-474-6zm-875-51c-7-22-11-43-8-45 2-2 9 14 16 37 7 22 11 43 8 45-2 2-9-14-16-37zm343 19c-44-51-57-68-52-68 3 0 22 20 42 45 38 46 45 63 10 23zm1028 1-23-9 6-10 6-10h-9c-6 0-13-7-16-16l-6-15 45 32c25 18 45 34 45 36 0 6-24 2-48-8zM50 1516c0-2 8-10 18-17l17-14-14 18c-13 16-21 21-21 13zm877-33c40-63 155-223 160-223 2 0-21 37-53 83-32 45-71 101-87 125-31 46-48 59-20 15zm582-10c-29-35-41-53-36-53 2 0 17 16 31 35 28 36 31 49 5 18zm890-10-14-18 18 14c9 7 17 15 17 17 0 8-8 3-21-13zm-1026-15c-43-57-66-91-58-86 12 7 78 98 72 98-3 0-9-6-14-12zm-927-36c22-21 466-323 469-320 2 2-98 73-222 158l-225 155 129 5 128 6-144 2-145 2 10-8zm1552-1 33-6-133-92-133-93h-434l-4-7-5-8 226 5 227 5 135 94c74 52 139 98 145 103l9 8-49-1-50-2 33-6zm-415-8c15-2 39-2 55 0l27 4h-110l28-4zm-763-7c0-2 8-10 18-17l17-14-14 18c-13 16-21 21-21 13zm469-63-14-18 18 14c9 7 17 15 17 17 0 8-8 3-21-13zm930 0-14-18 18 14c9 7 17 15 17 17 0 8-8 3-21-13zm-1289-17c0-2 8-10 18-17l17-14-14 18c-13 16-21 21-21 13zm329-23-14-18 18 14c9 7 17 15 17 17 0 8-8 3-21-13zm890-10-14-18 18 14c9 7 17 15 17 17 0 8-8 3-21-13zm-1179 3c0-2 8-10 18-17l17-14-14 18c-13 16-21 21-21 13zm256-23c2-6-2-14-9-17l-12-4 11-1c6-1 18 7 25 16l14 17-12-7-11-7-5 7c-2 5-2 3-1-4zm-113-46 28-37-6-9-5-10 11-6c5-4 13-4 16-1 7 6-44 83-61 93-6 4 2-10 17-30zm212-125c19-64 54-156 54-146 1 14-47 155-55 163-4 3-3-5 1-17zm-265-62c-69-22-168-52-220-66l-95-27-15-15-15-16 15 10c8 6 44 19 80 28 36 10 138 40 227 68l163 49 10-6 10-6v21l-17-1c-10 0-74-18-143-39zm89-17-14-18 18 14c9 7 17 15 17 17 0 8-8 3-21-13zm165-143V705l3 83c2 45 2 119 0 165l-3 82V870zm236 149v-10l9 5c4 3 46-7 92-22l83-28 27-80c15-43 28-74 28-68 2 18-41 138-53 150-10 10-160 64-179 64-4 0-7-5-7-11zm-471-56-14-18 18 14c9 7 17 15 17 17 0 8-8 3-21-13zm-70-50-14-18 18 14c9 7 17 15 17 17 0 8-8 3-21-13zm383-23c0-8 6-31 13-50s13-28 13-20-6 31-13 50-13 28-13 20zm-467-36-30-26 33 22c17 12 32 23 32 26 0 7-4 5-35-22zm-56-41-14-18 18 14c9 7 17 15 17 17 0 8-8 3-21-13zm134-141c-111-87-208-164-215-172l-13-14 20 15c93 73 416 319 420 319 3 0 5-39 5-87v-87l-22-25-23-26 28 25 28 24-3 90-3 89-10 3c-5 1-101-68-212-154zm418 123c0-5 4-19 9-30l9-20v15c0 8-4 22-9 30l-10 15 1-10zm373-10c23-76 95-278 95-270 1 14-87 276-95 284l-6 6 6-20zm-343-81c-1-6 9-20 22-31 42-38 281-217 274-206-4 6-70 59-146 117-77 58-141 111-144 118l-5 13-1-11zM771 549c-6-18-9-34-7-36s9 10 15 28 9 34 7 36-9-10-15-28zm-21-65v-15l10 6 10 6-5 10c-9 14-15 11-15-7zm1144 1c23-76 95-278 95-270 1 14-87 276-95 284l-6 6 6-20zm-895-12-14-18 18 14c16 13 21 21 13 21-2 0-10-8-17-17zm-40-30-14-18 18 14c16 13 21 21 13 21-2 0-10-8-17-17zM769 303l-14-18 18 14c16 13 21 21 13 21-2 0-10-8-17-17zm-40-30-14-18 18 14c16 13 21 21 13 21-2 0-10-8-17-17zm-40-30-14-18 18 14c16 13 21 21 13 21-2 0-10-8-17-17zm1081 3c0-2 8-10 18-17l17-14-14 18c-13 16-21 21-21 13zm110-80c0-2 8-10 18-17l17-14-14 18c-13 16-21 21-21 13zm121 3c-1-4 6-26 14-49 19-53 14-60-15-20l-22 30-9-5c-5-3-19-1-31 5l-23 11 35-30c19-16 48-37 64-47l29-17-6 30c-6 31-35 103-36 92zM451 109c-7-23-10-44-7-47s6 0 6 7v12l9-6 10-5 7 11 7 12-11-7-12-7v8c0 4 7 17 15 27 19 25 19 36 2 36h-14l-12-41zm88 24-14-18 18 14c16 13 21 21 13 21-2 0-10-8-17-17zm-40-30-14-18 18 14c9 7 17 15 17 17 0 8-8 3-21-13z"/></g></g></svg>